<?xml version="1.0" standalone="no"?>
<!DOCTYPE svg PUBLIC "-//W3C//DTD SVG 20010904//EN"
 "http://www.w3.org/TR/2001/REC-SVG-20010904/DTD/svg10.dtd">
<svg version="1.0" xmlns="http://www.w3.org/2000/svg"
 width="512.000000pt" height="512.000000pt" viewBox="0 0 512.000000 512.000000"
 preserveAspectRatio="xMidYMid meet">
<metadata>
Created by potrace 1.14, written by Peter Selinger 2001-2017
</metadata>
<g transform="translate(0.000000,512.000000) scale(0.100000,-0.100000)"
fill="#000000" stroke="none">
<path d="M2379 5116 c-2 -2 -40 -6 -83 -10 -44 -4 -82 -8 -85 -10 -3 -2 -31
-7 -61 -11 -30 -3 -75 -11 -100 -17 -25 -5 -56 -12 -70 -14 -52 -10 -236 -66
-329 -100 -250 -94 -571 -285 -761 -454 -115 -103 -266 -258 -320 -330 -14
-18 -29 -38 -35 -44 -14 -16 -50 -67 -110 -156 -222 -327 -370 -741 -413
-1150 -14 -140 -7 -504 12 -615 3 -16 8 -43 10 -60 3 -25 28 -148 41 -205 2
-8 13 -46 25 -85 11 -38 22 -77 25 -85 30 -111 173 -429 233 -517 10 -15 44
-68 76 -116 193 -292 476 -566 780 -754 276 -171 630 -303 931 -348 22 -4 51
-8 65 -11 139 -26 532 -26 708 1 76 12 90 14 142 25 30 6 69 14 85 17 120 21
388 118 556 202 308 155 548 342 798 621 143 159 330 458 416 665 21 51 76
197 79 210 1 6 12 42 23 80 70 235 97 431 98 710 0 217 -11 339 -44 500 -6 28
-13 61 -15 75 -19 96 -80 286 -133 415 -273 663 -843 1199 -1527 1434 -104 36
-284 85 -356 97 -70 11 -85 14 -195 30 -44 6 -460 15 -466 10z"/>
</g>
</svg>
